<?xml version="1.0" standalone="no"?>
<!DOCTYPE svg PUBLIC "-//W3C//DTD SVG 20010904//EN"
 "http://www.w3.org/TR/2001/REC-SVG-20010904/DTD/svg10.dtd">
<svg version="1.0" xmlns="http://www.w3.org/2000/svg"
 width="96.000000pt" height="96.000000pt" viewBox="0 0 96.000000 96.000000"
 preserveAspectRatio="xMidYMid meet">

<g transform="translate(0.000000,96.000000) scale(0.100000,-0.100000)"
fill="#B21F18" stroke="none">
<path d="M360 884 c-138 -37 -260 -162 -286 -291 l-6 -33 96 0 96 0 13 33 c37
86 115 137 213 137 97 -1 165 -44 216 -139 l17 -31 91 0 c87 0 90 1 90 23 0
72 -111 222 -198 266 -98 50 -234 64 -342 35z"/>
<path d="M85 323 c10 -46 67 -133 110 -170 22 -20 69 -49 105 -66 56 -27 79
-32 163 -35 80 -4 109 -1 165 18 114 36 215 130 254 235 l17 45 -97 0 -97 0
-48 -55 c-39 -45 -58 -58 -103 -71 -62 -18 -117 -12 -175 17 -36 18 -99 81
-99 99 0 6 -43 10 -101 10 l-101 0 7 -27z"/>
</g>
</svg>
